<svg xmlns="http://www.w3.org/2000/svg" width="1200" height="750" viewBox="0 0 1200 750">
  <defs>
    <linearGradient id="hero" x1="0" y1="0" x2="1" y2="1">
      <stop offset="0%" stop-color="#171412"/>
      <stop offset="100%" stop-color="#0f766e"/>
    </linearGradient>
  </defs>
  <rect width="1200" height="750" fill="#f7f4ef"/>
  <rect x="48" y="36" width="1104" height="72" rx="28" fill="#ffffff" stroke="#171412" stroke-opacity="0.08"/>
  <text x="88" y="62" font-family="Inter, system-ui, sans-serif" font-size="13" font-weight="700" fill="#0f766e" letter-spacing="2">BOOKLYPRO</text>
  <text x="88" y="88" font-family="Inter, system-ui, sans-serif" font-size="22" font-weight="600" fill="#171412">Smart Appointment Booking</text>
  <rect x="880" y="58" width="88" height="36" rx="18" fill="#171412"/>
  <text x="924" y="81" font-family="Inter, system-ui, sans-serif" font-size="14" font-weight="600" fill="#ffffff" text-anchor="middle">Book</text>
  <rect x="980" y="58" width="132" height="36" rx="18" fill="#ffffff" stroke="#171412" stroke-opacity="0.1"/>
  <text x="1046" y="81" font-family="Inter, system-ui, sans-serif" font-size="14" font-weight="600" fill="#171412" text-anchor="middle">Dashboard</text>
  <rect x="48" y="132" width="640" height="420" rx="32" fill="url(#hero)"/>
  <text x="96" y="210" font-family="Inter, system-ui, sans-serif" font-size="52" font-weight="700" fill="#ffffff">Bookings, reminders,</text>
  <text x="96" y="270" font-family="Inter, system-ui, sans-serif" font-size="52" font-weight="700" fill="#ffffff">and customer risk</text>
  <text x="96" y="330" font-family="Inter, system-ui, sans-serif" font-size="52" font-weight="700" fill="#ffffff">in one workspace.</text>
  <rect x="96" y="390" width="180" height="56" rx="28" fill="#ffffff"/>
  <text x="186" y="424" font-family="Inter, system-ui, sans-serif" font-size="16" font-weight="600" fill="#171412" text-anchor="middle">Book appointment</text>
  <rect x="96" y="470" width="160" height="88" rx="24" fill="#ffffff" fill-opacity="0.08" stroke="#ffffff" stroke-opacity="0.12"/>
  <text x="120" y="510" font-family="Inter, system-ui, sans-serif" font-size="14" fill="#d6d3d1">Today</text>
  <text x="120" y="542" font-family="Inter, system-ui, sans-serif" font-size="28" font-weight="700" fill="#ffffff">5</text>
  <rect x="272" y="470" width="160" height="88" rx="24" fill="#ffffff" fill-opacity="0.08" stroke="#ffffff" stroke-opacity="0.12"/>
  <text x="296" y="510" font-family="Inter, system-ui, sans-serif" font-size="14" fill="#d6d3d1">Revenue</text>
  <text x="296" y="542" font-family="Inter, system-ui, sans-serif" font-size="28" font-weight="700" fill="#ffffff">$248</text>
  <rect x="448" y="470" width="160" height="88" rx="24" fill="#ffffff" fill-opacity="0.08" stroke="#ffffff" stroke-opacity="0.12"/>
  <text x="472" y="510" font-family="Inter, system-ui, sans-serif" font-size="14" fill="#d6d3d1">Pending</text>
  <text x="472" y="542" font-family="Inter, system-ui, sans-serif" font-size="28" font-weight="700" fill="#ffffff">2</text>
  <rect x="720" y="132" width="432" height="420" rx="32" fill="#ffffff" stroke="#171412" stroke-opacity="0.08"/>
  <text x="760" y="188" font-family="Inter, system-ui, sans-serif" font-size="16" fill="#78716c">Owner dashboard</text>
  <text x="760" y="222" font-family="Inter, system-ui, sans-serif" font-size="28" font-weight="700" fill="#171412">This week</text>
  <g>
    <rect x="760" y="250" width="48" height="72" rx="16" fill="#0f766e"/>
    <rect x="820" y="250" width="48" height="72" rx="16" fill="#f5f5f4" stroke="#171412" stroke-opacity="0.08"/>
    <rect x="880" y="250" width="48" height="72" rx="16" fill="#f5f5f4" stroke="#171412" stroke-opacity="0.08"/>
    <rect x="940" y="250" width="48" height="72" rx="16" fill="#f5f5f4" stroke="#171412" stroke-opacity="0.08"/>
    <rect x="1000" y="250" width="48" height="72" rx="16" fill="#f5f5f4" stroke="#171412" stroke-opacity="0.08"/>
    <rect x="1060" y="250" width="48" height="72" rx="16" fill="#f5f5f4" stroke="#171412" stroke-opacity="0.08"/>
  </g>
  <rect x="760" y="350" width="352" height="88" rx="24" fill="#f5f5f4" stroke="#171412" stroke-opacity="0.08"/>
  <circle cx="796" cy="394" r="22" fill="#ffffff" stroke="#171412" stroke-opacity="0.08"/>
  <text x="832" y="386" font-family="Inter, system-ui, sans-serif" font-size="18" font-weight="600" fill="#171412">Maya Khan</text>
  <text x="832" y="412" font-family="Inter, system-ui, sans-serif" font-size="14" fill="#78716c">Signature Haircut · 10:00</text>
  <rect x="1020" y="372" width="76" height="28" rx="14" fill="#d1fae5"/>
  <text x="1058" y="391" font-family="Inter, system-ui, sans-serif" font-size="12" font-weight="600" fill="#065f46" text-anchor="middle">confirmed</text>
  <rect x="760" y="454" width="352" height="88" rx="24" fill="#f5f5f4" stroke="#171412" stroke-opacity="0.08"/>
  <circle cx="796" cy="498" r="22" fill="#ffffff" stroke="#171412" stroke-opacity="0.08"/>
  <text x="832" y="490" font-family="Inter, system-ui, sans-serif" font-size="18" font-weight="600" fill="#171412">Ali Raza</text>
  <text x="832" y="516" font-family="Inter, system-ui, sans-serif" font-size="14" fill="#78716c">Beard Trim · 13:30</text>
  <rect x="1020" y="478" width="76" height="28" rx="14" fill="#fef3c7"/>
  <text x="1058" y="497" font-family="Inter, system-ui, sans-serif" font-size="12" font-weight="600" fill="#92400e" text-anchor="middle">pending</text>
  <rect x="48" y="580" width="1104" height="120" rx="32" fill="#ffffff" stroke="#171412" stroke-opacity="0.08"/>
  <text x="88" y="628" font-family="Inter, system-ui, sans-serif" font-size="16" fill="#78716c">Next.js · Firebase · Gemini AI · TypeScript</text>
  <text x="88" y="662" font-family="Inter, system-ui, sans-serif" font-size="24" font-weight="700" fill="#171412">Portfolio project by Tahir Mehmood</text>
</svg>
