<svg width="390" height="844" viewBox="0 0 390 844" fill="none" xmlns="http://www.w3.org/2000/svg">
  <rect width="390" height="844" fill="#F8F2E8"/>
  <rect x="0" y="0" width="390" height="844" fill="#F8F2E8"/>
  <rect x="22" y="54" width="346" height="736" rx="34" fill="#F8F2E8" stroke="#E5D9C7" stroke-width="2"/>
  <rect x="150" y="70" width="90" height="5" rx="2.5" fill="#2C2118" opacity="0.18"/>
  <text x="42" y="126" fill="#2C2118" font-family="Inter, Arial, sans-serif" font-size="36" font-weight="700">Atelier</text>
  <text x="42" y="154" fill="#8A7A69" font-family="Inter, Arial, sans-serif" font-size="15">Timeless style, thoughtfully made.</text>
  <rect x="42" y="184" width="306" height="48" rx="24" fill="#FFFFFF" stroke="#E5D9C7"/>
  <circle cx="67" cy="208" r="8" stroke="#8A7A69" stroke-width="2"/>
  <path d="M73 214L79 220" stroke="#8A7A69" stroke-width="2" stroke-linecap="round"/>
  <text x="92" y="214" fill="#8A7A69" font-family="Inter, Arial, sans-serif" font-size="14">Search products...</text>
  <rect x="42" y="252" width="54" height="34" rx="17" fill="#2C2118"/>
  <text x="62" y="274" fill="#F8F2E8" font-family="Inter, Arial, sans-serif" font-size="13">All</text>
  <rect x="106" y="252" width="70" height="34" rx="17" fill="transparent" stroke="#E5D9C7"/>
  <text x="123" y="274" fill="#2C2118" font-family="Inter, Arial, sans-serif" font-size="13">Women</text>
  <rect x="186" y="252" width="56" height="34" rx="17" fill="transparent" stroke="#E5D9C7"/>
  <text x="204" y="274" fill="#2C2118" font-family="Inter, Arial, sans-serif" font-size="13">Men</text>
  <rect x="252" y="252" width="96" height="34" rx="17" fill="transparent" stroke="#E5D9C7"/>
  <text x="272" y="274" fill="#2C2118" font-family="Inter, Arial, sans-serif" font-size="13">Accessories</text>

  <rect x="42" y="316" width="143" height="214" rx="18" fill="#FFFFFF" stroke="#E5D9C7"/>
  <rect x="54" y="330" width="119" height="132" rx="14" fill="#D9C5AE"/>
  <path d="M54 462C76 430 94 418 111 429C129 441 138 397 173 371V462H54Z" fill="#B99172"/>
  <circle cx="90" cy="364" r="18" fill="#F8F2E8" opacity="0.72"/>
  <text x="54" y="490" fill="#2C2118" font-family="Inter, Arial, sans-serif" font-size="14" font-weight="600">Linen Jacket</text>
  <text x="54" y="514" fill="#8A7A69" font-family="Inter, Arial, sans-serif" font-size="13">$89.00</text>

  <rect x="205" y="316" width="143" height="214" rx="18" fill="#FFFFFF" stroke="#E5D9C7"/>
  <rect x="217" y="330" width="119" height="132" rx="14" fill="#E9DFD0"/>
  <path d="M236 448C242 396 260 368 283 362C303 357 320 382 328 448H236Z" fill="#2C2118"/>
  <path d="M260 362C267 348 295 348 302 362C295 375 267 375 260 362Z" fill="#8A7A69"/>
  <text x="217" y="490" fill="#2C2118" font-family="Inter, Arial, sans-serif" font-size="14" font-weight="600">Classic Tote</text>
  <text x="217" y="514" fill="#8A7A69" font-family="Inter, Arial, sans-serif" font-size="13">$64.00</text>

  <rect x="42" y="550" width="143" height="214" rx="18" fill="#FFFFFF" stroke="#E5D9C7"/>
  <rect x="54" y="564" width="119" height="132" rx="14" fill="#EEE5D8"/>
  <path d="M80 672L105 590H131L153 672H80Z" fill="#7A5B45"/>
  <path d="M99 590H137L126 574H110L99 590Z" fill="#2C2118"/>
  <text x="54" y="724" fill="#2C2118" font-family="Inter, Arial, sans-serif" font-size="14" font-weight="600">Tailored Dress</text>
  <text x="54" y="748" fill="#8A7A69" font-family="Inter, Arial, sans-serif" font-size="13">$120.00</text>

  <rect x="205" y="550" width="143" height="214" rx="18" fill="#FFFFFF" stroke="#E5D9C7"/>
  <rect x="217" y="564" width="119" height="132" rx="14" fill="#D8D7CF"/>
  <path d="M247 650C255 619 265 601 277 596C293 603 304 622 313 650L304 678H256L247 650Z" fill="#304B43"/>
  <path d="M266 596H288L284 582H270L266 596Z" fill="#2C2118"/>
  <text x="217" y="724" fill="#2C2118" font-family="Inter, Arial, sans-serif" font-size="14" font-weight="600">Wool Coat</text>
  <text x="217" y="748" fill="#8A7A69" font-family="Inter, Arial, sans-serif" font-size="13">$149.00</text>

  <rect x="22" y="790" width="346" height="54" fill="#F8F2E8"/>
  <line x1="42" y1="790" x2="348" y2="790" stroke="#E5D9C7"/>
  <circle cx="96" cy="815" r="11" stroke="#B06B45" stroke-width="2"/>
  <path d="M89 816H103" stroke="#B06B45" stroke-width="2" stroke-linecap="round"/>
  <path d="M96 809V823" stroke="#B06B45" stroke-width="2" stroke-linecap="round"/>
  <path d="M190 807H211L207 825H194L190 807Z" stroke="#8A7A69" stroke-width="2" stroke-linejoin="round"/>
  <circle cx="194" cy="829" r="2" fill="#8A7A69"/>
  <circle cx="207" cy="829" r="2" fill="#8A7A69"/>
  <circle cx="293" cy="816" r="10" stroke="#8A7A69" stroke-width="2"/>
  <path d="M276 834C280 826 286 822 293 822C300 822 306 826 310 834" stroke="#8A7A69" stroke-width="2" stroke-linecap="round"/>
</svg>
